<?xml version="1.0" encoding="UTF-8"?>
<svg xmlns="http://www.w3.org/2000/svg" width="168" height="40" viewBox="0 0 168 40" fill="none">
  <path d="M132.176 20.6683C132.176 19.6628 132.176 18.7317 132.139 17.875C132.102 17.0185 132.027 16.1992 131.916 15.4916C131.804 14.7468 131.581 14.0763 131.247 13.406C130.949 12.7356 130.466 12.1397 129.908 11.5438C129.09 10.7245 128.198 10.1286 127.194 9.68168C126.19 9.27201 125.037 9.01131 123.736 9.01131C122.434 9.01131 121.282 9.23477 120.278 9.68168C119.274 10.0914 118.344 10.7245 117.526 11.5438C116.932 12.1397 116.523 12.7356 116.225 13.406C115.928 14.0763 115.667 14.7468 115.556 15.4916C115.444 16.2364 115.37 17.0185 115.333 17.875C115.296 18.7317 115.296 19.6628 115.296 20.6683C115.296 21.6738 115.296 22.5677 115.333 23.4615C115.37 24.3181 115.444 25.1374 115.556 25.845C115.667 26.5899 115.891 27.2603 116.225 27.9306C116.523 28.601 117.006 29.1968 117.526 29.7927C118.344 30.6121 119.237 31.208 120.278 31.6549C121.282 32.0646 122.434 32.3252 123.736 32.3252C125.037 32.3252 126.153 32.1018 127.194 31.6549C128.198 31.2452 129.127 30.6121 129.908 29.7927C130.503 29.1968 130.912 28.601 131.247 27.9306C131.544 27.2603 131.804 26.5899 131.916 25.845C132.027 25.1001 132.139 24.3181 132.139 23.4615C132.176 22.5305 132.176 21.6738 132.176 20.6683ZM127.751 20.6683C127.751 21.7483 127.751 22.6794 127.714 23.4243C127.677 24.1691 127.64 24.7277 127.528 25.2119C127.454 25.6588 127.342 26.0684 127.194 26.3292C127.045 26.6272 126.896 26.9251 126.636 27.1486C126.338 27.521 125.892 27.8189 125.446 28.0423C124.963 28.2658 124.405 28.3403 123.773 28.3775C123.141 28.3775 122.62 28.2658 122.1 28.0423C121.616 27.8189 121.207 27.5582 120.873 27.1486C120.65 26.9251 120.501 26.6644 120.315 26.3292C120.166 26.0312 120.055 25.6588 119.981 25.2119C119.906 24.765 119.832 24.1691 119.832 23.4243C119.795 22.6794 119.795 21.7855 119.795 20.6683C119.795 19.5883 119.795 18.6572 119.832 17.9123C119.869 17.1674 119.906 16.6088 119.981 16.1247C120.055 15.6406 120.166 15.2681 120.315 15.0074C120.464 14.7095 120.613 14.4114 120.873 14.188C121.17 13.8156 121.616 13.5177 122.1 13.2942C122.583 13.0708 123.141 12.9963 123.773 12.959C124.405 12.959 124.926 13.0708 125.446 13.2942C125.892 13.5177 126.338 13.7784 126.636 14.188C126.859 14.4114 127.008 14.6723 127.194 15.0074C127.342 15.3054 127.454 15.6778 127.528 16.1247C127.603 16.5716 127.677 17.1674 127.714 17.9123C127.714 18.6572 127.751 19.5883 127.751 20.6683Z" fill="white"></path>
  <path d="M167.686 9.60734C167.686 9.38389 167.5 9.23491 167.314 9.23491H163.669C163.446 9.23491 163.297 9.42113 163.297 9.60734V23.2382L154.337 9.34665C154.263 9.27215 154.225 9.23491 154.114 9.23491H150.693C150.507 9.23491 150.321 9.42113 150.321 9.60734C150.321 16.9814 150.321 24.3554 150.321 31.655C150.321 31.8785 150.507 32.0274 150.693 32.0274H154.337C154.56 32.0274 154.709 31.8412 154.709 31.655V17.9869L163.669 31.9157C163.744 31.9902 163.781 32.0274 163.892 32.0274H167.314C167.537 32.0274 167.686 31.8412 167.686 31.655V9.60734Z" fill="white"></path>
  <path d="M143.034 9.60734C143.034 9.38389 142.848 9.23491 142.662 9.23491H139.019C138.796 9.23491 138.647 9.42113 138.647 9.60734V31.655C138.647 31.8785 138.833 32.0274 139.019 32.0274H142.662C142.885 32.0274 143.034 31.8412 143.034 31.655V9.60734Z" fill="white"></path>
  <path d="M99.085 20.6683C99.085 19.5883 99.085 18.6572 99.1222 17.9123C99.1594 17.1674 99.1966 16.6088 99.2709 16.1247C99.6055 14.1508 101.13 12.9963 103.063 12.9963C104.328 12.9963 105.443 13.4432 106.187 14.5232C106.484 14.9702 106.744 15.5288 106.893 16.1619C106.893 16.2364 106.93 16.2737 107.005 16.2737H111.318C111.392 16.2737 111.392 16.2364 111.392 16.1619C110.946 13.5177 109.496 11.0597 106.968 9.8679C105.815 9.30926 104.476 9.01131 102.989 9.01131C100.572 9.01131 98.4901 9.8679 96.817 11.5066C95.8502 12.4749 95.2553 13.6294 94.9579 14.933C94.6976 16.1992 94.5861 18.0985 94.5861 20.5938C94.5861 23.0891 94.6976 24.9884 94.9579 26.2546C95.2181 27.5582 95.8874 28.7127 96.817 29.681C98.4901 31.357 100.535 32.1763 102.989 32.1763C104.439 32.1763 105.778 31.9156 106.968 31.3197C109.459 30.128 110.946 27.7444 111.392 25.0257C111.392 24.9512 111.392 24.9139 111.318 24.9139H107.005C106.93 24.9139 106.893 24.9512 106.893 25.0257C106.744 25.6588 106.521 26.1801 106.187 26.6644C105.443 27.7072 104.328 28.1541 103.063 28.1913C101.13 28.1913 99.6427 27.0368 99.2709 25.0629C99.1966 24.616 99.1222 24.0201 99.1222 23.2753C99.085 22.6794 99.085 21.7483 99.085 20.6683Z" fill="white"></path>
  <path d="M53.4259 9.60734C53.4259 9.38389 53.24 9.23491 53.0541 9.23491H49.4103C49.1872 9.23491 49.0385 9.42113 49.0385 9.60734V31.655C49.0385 31.8785 49.2244 32.0274 49.4103 32.0274H53.0541C53.2772 32.0274 53.4259 31.8412 53.4259 31.655V25.1748L56.4005 21.6367L62.4612 31.953C62.4983 32.0274 62.5727 32.0647 62.6842 32.0647H67.146C67.3319 32.0647 67.3691 31.953 67.2947 31.7668L59.3751 18.3221L66.6627 9.5701C66.8114 9.38388 66.737 9.23491 66.514 9.23491H61.6059C61.5315 9.23491 61.4943 9.23491 61.4572 9.30939L53.4259 18.8808V9.60734Z" fill="white"></path>
  <path d="M80.1962 28.303C78.1139 28.303 76.2549 26.3663 76.2549 24.0945V9.64438C76.2549 9.42092 76.069 9.27196 75.883 9.27196H72.2393C72.0162 9.27196 71.8675 9.45816 71.8675 9.64438V24.0572C71.8675 29.1223 75.6599 32.3252 80.2705 32.3252C84.881 32.3252 88.6735 29.1223 88.6735 24.0572V9.64438C88.6735 9.42092 88.4877 9.27196 88.3018 9.27196H84.6579C84.4349 9.27196 84.2861 9.45816 84.2861 9.64438V24.0945C84.1002 26.3663 82.2411 28.303 80.1962 28.303Z" fill="white"></path>
  <path d="M12.0062 20.6681L23.421 32.1017L30.6341 24.8766C31.8984 23.6103 33.9805 23.6103 35.2447 24.8766C36.5089 26.1428 36.5089 28.2284 35.2447 29.4946L25.7262 39.0288C24.462 40.295 22.3798 40.295 21.1157 39.0288L7.43285 25.2862V33.4796C7.43285 35.2673 5.98277 36.757 4.16087 36.757C2.33896 36.757 0.888885 35.3046 0.888885 33.4796V7.9311C0.888885 6.10621 2.33896 4.65374 4.16087 4.65374C5.98277 4.65374 7.43285 6.10621 7.43285 7.9311V16.0501L21.1528 2.30745C22.417 1.0412 24.4992 1.0412 25.7633 2.30745L35.2819 11.8416C36.5461 13.1078 36.5461 15.1934 35.2819 16.4597C34.0177 17.7259 31.9356 17.7259 30.6714 16.4597L23.4582 9.23459L12.0062 20.6681ZM23.4582 17.3908C21.6362 17.3908 20.1862 18.8432 20.1862 20.6681C20.1862 22.493 21.6362 23.9455 23.4582 23.9455C25.28 23.9455 26.73 22.493 26.73 20.6681C26.6929 18.8432 25.2428 17.3908 23.4582 17.3908Z" fill="white"></path>
</svg>
