<?xml version="1.0" encoding="UTF-8"?>
<svg xmlns="http://www.w3.org/2000/svg" width="447" height="80" viewBox="0 0 447 80" fill="none">
  <g clip-path="url(#clip0_6033_2170)">
    <path d="M67.5091 75.629C61.4402 79.0223 50.9786 80 36.5289 80C22.0792 80 11.6176 79.0223 5.54869 75.629C1.90736 73.5586 0.0577989 70.798 0.0577989 68.785C0.0577989 67.6348 0.693587 67.0022 2.02296 67.0022H71.0926C72.4798 67.0022 73.0578 67.6348 73.0578 68.785C73 70.798 71.1504 73.5586 67.5091 75.629ZM71.0348 22.5449H1.96516C0.635788 22.5449 0 21.8548 0 20.5895C0 13.1704 11.2708 0 36.4711 0C61.4402 0 72.9422 13.1704 72.9422 20.5895C73 21.8548 72.3642 22.5449 71.0348 22.5449Z" fill="#FF8732"></path>
    <path fill-rule="evenodd" clip-rule="evenodd" d="M49.9382 35.0251C49.9382 38.4183 47.6263 40.7763 43.9272 40.7763C40.4592 40.7763 36.8757 38.3608 36.8757 33.0697C36.8757 27.606 40.4014 25.1904 44.0428 25.1904C46.1235 25.1904 47.5107 25.708 48.4933 26.4557C49.0135 26.8583 49.3602 27.4909 49.3602 28.2961C49.3602 29.3888 48.4933 30.3666 47.2795 30.3666C46.8171 30.3666 46.4703 30.194 46.1235 30.0215C45.7189 29.7914 45.2565 29.5614 44.3895 29.5614C43.118 29.5614 41.4996 30.4816 41.4996 33.0697C41.4996 35.3702 42.7134 36.6354 44.4473 36.6354C45.0253 36.6354 45.4877 36.3479 45.4877 35.9453C45.4877 35.6002 45.1987 35.4852 44.7363 35.4852C43.8694 35.4852 42.7134 34.8525 42.7134 33.5298C42.7134 32.0919 43.8116 31.4018 45.1987 31.4018H45.9501C48.6089 31.3443 49.9382 32.8396 49.9382 35.0251ZM14.4497 52.6239C14.4497 52.739 14.4497 52.9115 14.6809 53.2566C15.2589 54.1193 16.7617 55.9597 18.0911 57.3975C19.1314 58.4902 19.6516 59.4679 19.6516 60.6757C19.6516 62.6886 17.8021 64.5865 15.6635 64.5865C14.3919 64.5865 13.1781 63.8964 12.1956 62.8612C10.7506 61.2508 9.19002 58.5477 8.61203 57.2249C8.61203 57.2249 8.61203 57.1674 8.55424 57.1099C8.49644 56.9374 8.38084 56.6498 8.03405 56.6498C7.74505 56.6498 7.62945 56.8799 7.62945 57.1099V60.3881C7.62945 62.6886 6.24228 64.529 3.81473 64.529C1.32937 64.529 0 62.6886 0 60.3881V46.1825C0 43.882 1.32937 42.0416 3.81473 42.0416C6.30008 42.0416 7.62945 43.882 7.62945 46.1825V48.483C7.62945 48.7706 7.74505 48.9431 8.03405 48.9431C8.20744 48.9431 8.32304 48.8856 8.55424 48.7131C9.42122 47.9079 10.6928 45.8374 11.791 44.0546C12.6002 42.7318 13.8139 41.9841 15.1433 41.9841C17.1663 41.9841 19.0158 43.5945 19.0158 45.6074C19.0158 46.4126 18.7268 47.3328 18.0333 48.4255C17.1663 49.8058 15.5479 51.3011 14.8543 51.9338C14.6231 52.2213 14.4497 52.3939 14.4497 52.6239ZM2.71655 40.6038H6.01108C9.13222 40.6038 11.0396 38.5333 11.0396 35.9453C11.0396 33.9323 9.88361 32.9546 9.53682 32.7246C9.42122 32.6096 9.30562 32.552 9.30562 32.437C9.30562 32.322 9.36342 32.322 9.42122 32.207L9.47902 32.1495C9.94141 31.6318 10.346 30.8267 10.346 29.6189C10.346 26.8008 8.43864 25.363 5.49089 25.363H2.71655C0.866983 25.3055 0 26.3407 0 27.836V38.0732C0 39.5111 0.866983 40.6038 2.71655 40.6038ZM4.10372 29.2738C4.10372 28.9863 4.27712 28.7562 4.68171 28.7562H4.9707C5.95329 28.7562 6.30008 29.4464 6.30008 30.079C6.30008 30.6541 6.01108 31.4018 4.9707 31.4018H4.68171C4.27712 31.4018 4.10372 31.1717 4.10372 30.8842V29.2738ZM4.10372 34.7375C4.10372 34.45 4.27712 34.2199 4.68171 34.2199H5.0863C6.18448 34.2199 6.53127 34.9676 6.53127 35.6577C6.53127 36.2904 6.18448 37.0955 5.0863 37.0955H4.68171C4.27712 37.0955 4.10372 36.8655 4.10372 36.5779V34.7375ZM66.2375 38.1883C66.2375 39.5686 65.4283 40.7188 63.9256 40.7188C62.4228 40.7188 61.6136 39.6261 61.6136 38.1883V27.836C61.6136 26.3982 62.4806 25.3055 64.3302 25.3055H66.9889C69.9367 25.3055 72.422 26.9733 72.422 29.964C72.422 31.9194 71.555 33.1272 70.8614 33.7023C70.6302 33.8748 70.6302 34.0474 70.688 34.2199C70.977 35.0251 71.4972 35.6577 72.3064 36.6929C72.711 37.2106 73.0578 37.7857 73.0578 38.5909C73.0578 39.7986 72.0174 40.7188 70.8036 40.7188C70.0523 40.7188 69.3009 40.3738 68.4917 39.3385C67.8559 38.5333 67.2779 36.923 67.1045 35.7152C67.0467 35.4277 66.9889 35.2551 66.6999 35.2551C66.4687 35.2551 66.3531 35.3702 66.3531 35.7152V38.1883H66.2375ZM66.5265 29.1588C66.1219 29.1588 65.9485 29.3888 65.9485 29.6764V31.2868C65.9485 31.5743 66.1219 31.8044 66.5265 31.8044H66.8733C67.8559 31.8044 68.1449 31.0567 68.1449 30.4816C68.1449 29.8489 67.8559 29.1588 66.8733 29.1588H66.5265ZM25.3737 42.0416C22.7728 42.0416 21.3278 43.997 21.3278 46.4126V60.2156C21.3278 62.6311 22.7728 64.5865 25.3737 64.5865C27.9747 64.5865 29.4196 62.6311 29.4196 60.2156V46.4126C29.4196 43.997 28.0325 42.0416 25.3737 42.0416ZM65.8907 51.0136H67.0467C70.977 51.0136 73 53.1991 73 56.3047C73 61.2508 69.5321 64.5865 63.9834 64.5865C58.7237 64.5865 53.4062 61.0208 53.4062 53.4291C53.4062 45.4924 58.7237 42.0416 64.1568 42.0416C67.2201 42.0416 69.3587 42.7893 70.8036 43.882C71.6128 44.5147 72.133 45.3773 72.133 46.5276C72.133 48.0804 70.8614 49.5758 69.0119 49.5758C68.2605 49.5758 67.7981 49.3457 67.2779 49.0582C66.6421 48.7706 65.9485 48.4255 64.677 48.4255C62.7696 48.4255 60.342 49.7483 60.342 53.4866C60.342 56.8223 62.1338 58.6052 64.7925 58.6052C65.6017 58.6052 66.3531 58.2026 66.3531 57.6275C66.3531 57.1674 65.8907 56.9374 65.2549 56.9374C63.9834 56.9374 62.2494 56.0172 62.2494 54.1193C62.2494 51.9913 63.81 51.0136 65.8907 51.0136ZM58.2035 40.6038C59.5329 40.6038 60.5732 39.8561 60.5732 38.4183C60.5732 37.038 59.5329 36.2904 58.2035 36.2904H56.0649C55.6603 36.2904 55.4869 36.0603 55.4869 35.7727V35.3126C55.4869 35.0251 55.6603 34.795 56.0649 34.795H57.6833C58.7815 34.795 59.7063 34.1049 59.7063 32.9546C59.7063 31.7469 58.8393 31.1142 57.6833 31.1142H56.0649C55.6603 31.1142 55.4869 30.8842 55.4869 30.5966V30.2515C55.4869 29.964 55.6603 29.7339 56.0649 29.7339H58.1457C59.4751 29.7339 60.5154 28.9863 60.5154 27.5484C60.5154 26.1681 59.4751 25.4205 58.1457 25.4205H53.753C51.9034 25.4205 51.0364 26.5132 51.0364 27.951V38.1883C51.0364 39.6261 51.9034 40.7188 53.753 40.7188L58.2035 40.6038ZM23.7553 35.6002C23.7553 38.4183 21.7324 40.7188 17.9177 40.7188C14.1029 40.7188 12.1378 38.4758 12.1378 35.6002V27.7785C12.1378 26.3982 12.947 25.2479 14.4497 25.2479C15.9525 25.2479 16.8195 26.3407 16.8195 27.7785V35.3702C16.8195 35.9453 17.1085 36.5779 17.9177 36.5779C18.7846 36.5779 19.0736 35.9453 19.0736 35.3702V27.7785C19.0736 26.3982 19.8828 25.2479 21.3856 25.2479C22.8884 25.2479 23.6975 26.3407 23.6975 27.7785V35.6002H23.7553ZM34.3903 40.7188C35.6041 40.7188 36.6445 39.7411 36.6445 38.5909C36.6445 37.7857 36.2977 37.2106 35.8931 36.6929L35.7775 36.5204C35.1417 35.7152 34.5637 34.9676 34.2747 34.2199C34.2169 34.0474 34.2747 33.8748 34.4481 33.7023C35.1995 33.1272 36.0087 31.9194 36.0087 29.964C36.0087 27.0308 33.5234 25.3055 30.5756 25.3055H27.9169C26.0673 25.3055 25.2003 26.3982 25.2003 27.836V38.1883C25.2003 39.5686 26.0095 40.7188 27.5123 40.7188C29.015 40.7188 29.8242 39.6261 29.8242 38.1883V35.7152C29.8242 35.4277 29.9398 35.2551 30.171 35.2551C30.46 35.2551 30.5178 35.4277 30.5756 35.7152C30.8068 36.923 31.327 38.5333 31.9628 39.3385C32.8876 40.3738 33.639 40.7188 34.3903 40.7188ZM30.5178 31.8044H30.171C29.7664 31.8044 29.593 31.5743 29.593 31.2868V29.7339C29.593 29.4464 29.7664 29.2163 30.171 29.2163H30.5178C31.5004 29.2163 31.7894 29.9065 31.7894 30.5391C31.8472 31.0567 31.5004 31.8044 30.5178 31.8044ZM44.1006 46.125C44.1006 43.882 45.4299 42.0991 47.7997 42.0991C50.2272 42.0991 51.4988 43.882 51.4988 46.125V60.5032C51.4988 62.8037 50.1116 64.6441 47.6841 64.6441C46.2391 64.6441 44.9097 64.0689 43.696 61.7109L40.4592 55.442C40.2858 55.097 40.1702 54.9819 39.939 54.9819C39.7078 54.9819 39.5344 55.1545 39.5344 55.6146V60.6182C39.5344 62.8612 38.2051 64.6441 35.8353 64.6441C33.4078 64.6441 32.1362 62.8612 32.1362 60.6182V46.24C32.1362 43.9395 33.5234 42.0991 35.9509 42.0991C37.4537 42.0991 38.7253 42.6743 39.939 45.0323L43.1758 51.3011C43.3492 51.6462 43.4648 51.7612 43.696 51.7612C43.9272 51.7612 44.1006 51.5887 44.1006 51.1286V46.125Z" fill="#D62300"></path>
  </g>
  <defs>
    <clipPath id="clip0_6033_2170">
      <rect width="73" height="80" fill="white"></rect>
    </clipPath>
  </defs>
</svg>
