<?xml version="1.0" encoding="UTF-8"?>
<svg xmlns="http://www.w3.org/2000/svg" width="138" height="30" viewBox="0 0 138 30" fill="none">
  <g clip-path="url(#clip0_9_53)">
    <path fill-rule="evenodd" clip-rule="evenodd" d="M94.1421 0H99.5833V29.7692H94.1421V0ZM138 12.5538V7.93846H132.418V1.93846H126.977V23.8615C126.977 25.8923 127.493 27.4154 128.525 28.4308C129.557 29.4462 131.105 29.9538 133.215 29.9538H138V25.3385H134.482C133.731 25.3385 133.169 25.1538 132.84 24.8308C132.559 24.5538 132.371 23.7692 132.371 22.9385V12.5538H138ZM57.3202 23.9538L62.9021 7.89231H68.5778L60.5099 29.7231H54.0836L46.0156 7.93846H51.6914L57.3202 23.9538ZM118.158 18.8308C118.158 20.2154 117.924 21.4154 117.549 22.3846C117.126 23.3538 116.517 24.1385 115.766 24.6462C115.016 25.1538 114.077 25.3846 112.999 25.3846C111.451 25.3846 110.278 24.8769 109.528 23.9077C108.777 22.8923 108.355 21.4154 108.355 19.4308V7.89231H102.914V19.9846C102.914 21.8769 103.148 23.4923 103.617 24.7385C104.086 26.0308 104.743 27.0462 105.54 27.8308C106.338 28.6154 107.276 29.1692 108.355 29.4923C109.387 29.8154 110.513 30 111.685 30C113.374 30 114.781 29.6769 115.86 29.1231C116.845 28.5692 117.642 27.9231 118.299 27.2308L118.768 29.7692H123.506V7.93846H118.065V18.8308H118.158ZM85.8396 9.04615C84.1509 8.12308 82.087 7.66154 79.8355 7.66154C77.584 7.66154 75.567 8.12308 73.8314 9.04615C72.0958 9.96923 70.7355 11.3077 69.7974 12.9692C68.8593 14.6308 68.3902 16.6154 68.3902 18.8308C68.3902 21.0462 68.8593 22.9846 69.7974 24.6462C70.7355 26.3077 72.0958 27.6462 73.8314 28.5692C75.567 29.4923 77.584 29.9538 79.8355 29.9538C82.1339 29.9538 84.1509 29.4923 85.8396 28.5692C87.5282 27.6462 88.8885 26.3077 89.8266 24.6462C90.7648 22.9846 91.2338 21 91.2338 18.8308C91.2338 16.6154 90.7648 14.6308 89.8266 12.9692C88.9354 11.3077 87.5751 10.0154 85.8396 9.04615ZM82.9782 24.6462C82.087 25.2 81.0551 25.4769 79.8355 25.4769C78.6159 25.4769 77.584 25.2 76.6927 24.6462C75.8015 24.0923 75.0979 23.3077 74.6288 22.2923C74.1598 21.2769 73.8783 20.1231 73.8783 18.8308C73.8783 17.4923 74.1128 16.3385 74.6288 15.3692C75.0979 14.4 75.8015 13.5692 76.6927 13.0154C77.584 12.4615 78.6159 12.1385 79.8355 12.1385C81.0551 12.1385 82.1339 12.4154 82.9782 13.0154C83.8695 13.5692 84.5262 14.4 85.0421 15.3692C85.5112 16.3385 85.7927 17.5385 85.7927 18.8308C85.7927 20.1231 85.5581 21.2769 85.0421 22.2923C84.5731 23.3077 83.8695 24.0923 82.9782 24.6462ZM5.62882 7.33846H0V29.7231H5.62882V7.33846ZM23.3127 8.63077C23.3127 3.87692 19.3725 0 14.5411 0H0V4.8H13.8375C16.0421 4.8 17.8246 6.50769 17.8715 8.58462C17.8715 9.64615 17.4963 10.6154 16.7458 11.3538C15.9952 12.0462 15.0102 12.4615 13.9782 12.4615H8.58396C8.39633 12.4615 8.25561 12.6 8.25561 12.7846V17.0769C8.25561 17.1692 8.25561 17.2154 8.30252 17.2615L17.4494 29.7231H24.157L14.9633 17.2154C19.5602 17.0308 23.3127 13.2 23.3127 8.63077ZM40.6213 8.95385C38.9796 8.12308 37.0564 7.66154 34.8987 7.66154C32.741 7.66154 30.7709 8.12308 29.1292 9.04615C27.4405 9.96923 26.174 11.3077 25.2359 12.9692C24.2978 14.6308 23.8756 16.6154 23.8756 18.8769C23.8756 21.0923 24.3447 23.0308 25.2828 24.6923C26.2209 26.3538 27.5812 27.6923 29.2699 28.5692C31.0054 29.4923 33.0693 29.9538 35.4147 29.9538C37.291 29.9538 38.9327 29.6308 40.3868 28.9385C41.8409 28.2462 43.0136 27.3231 43.8579 26.1692C44.7022 25.0615 45.2651 23.8615 45.5466 22.5231L45.5935 22.3846H40.1054L40.0585 22.4769C39.777 23.4923 39.1672 24.2769 38.3698 24.8308C37.4786 25.4308 36.3528 25.7538 35.0863 25.7538C34.0075 25.7538 33.0224 25.5231 32.1781 25.0615C31.3338 24.6 30.6771 23.9538 30.208 23.1692C29.739 22.3385 29.5044 21.3692 29.4106 20.2615V20.0769H45.6873V19.9846C45.7342 19.6615 45.7811 19.3385 45.7811 19.0615C45.7811 18.7385 45.7811 18.4615 45.7811 18.1385C45.7342 16.0154 45.2651 14.1692 44.3739 12.6C43.5296 10.9846 42.2162 9.78462 40.6213 8.95385ZM38.6513 13.0615C39.5894 13.8462 40.1523 14.9077 40.3868 16.2923H29.6451C29.7859 15.4154 30.0673 14.6308 30.5364 13.9846C31.0523 13.2923 31.6621 12.7846 32.4595 12.4154C33.2101 12.0462 34.0544 11.8615 34.9456 11.8615C36.4466 11.8615 37.6662 12.2769 38.6513 13.0615Z" fill="white"></path>
  </g>
  <defs>
    <clipPath id="clip0_9_53">
      <rect width="138" height="30" fill="white"></rect>
    </clipPath>
  </defs>
</svg>
