<?xml version="1.0" encoding="UTF-8"?>
<svg xmlns="http://www.w3.org/2000/svg" width="264" height="50" viewBox="0 0 264 50" fill="none">
  <g clip-path="url(#clip0_9_12)">
    <path d="M129.175 28.2787C129.175 26.7415 128.415 25.5117 127.11 24.5904C126.132 23.9755 125.046 23.6681 122.765 23.1564C118.853 22.3362 118.636 22.0298 118.636 21.0053C118.636 19.7755 119.615 19.0585 121.678 19.0585C123.633 19.0585 124.611 19.6734 125.046 21.2096H128.631C128.305 18.034 125.807 16.2926 121.896 16.2926C117.876 16.2926 115.269 18.2394 115.269 21.3117C115.269 22.7457 115.921 23.9755 117.116 24.6926C117.876 25.2043 119.615 25.717 122.004 26.3319L122.33 26.434L122.982 26.5372C123.525 26.6404 124.069 26.8447 124.503 27.0489C125.481 27.4585 125.807 27.9713 125.807 28.6883C125.807 30.0202 124.611 30.9415 122.44 30.9415C119.941 30.9415 118.638 30.0202 118.312 28.1755H114.726C115.052 31.6585 117.768 33.7074 122.223 33.7074C126.351 33.6053 129.175 31.6596 129.175 28.2787Z" fill="white"></path>
    <path d="M111.141 30.2245H101.797V26.5362H108.425V23.6681H101.797V19.4681H111.141V16.4968H98.1042V33.1947H111.141V30.2245Z" fill="white"></path>
    <path d="M35.7438 11.5798C36.9386 18.3404 35.3094 25.4096 29.225 29.2C31.5063 31.5564 36.0687 33.2979 40.7418 32.8883C42.1531 30.5319 42.9147 27.766 42.9147 24.8979C42.9135 19.4681 40.0885 14.5511 35.7438 11.5798Z" fill="white"></path>
    <path d="M8.47394 21.3117C8.14789 22.4394 8.03958 23.6681 8.03958 24.8979C8.03958 32.3766 13.3625 38.7277 20.7511 40.6745V33.9138C20.6416 27.1511 15.3188 21.9266 8.47394 21.3117Z" fill="white"></path>
    <path d="M24.4448 28.3809C29.7688 25.9223 33.2448 21.4149 32.8105 15.7809C27.1615 17.8298 24.0105 22.8489 24.0105 28.1766V41.2883C24.4448 41.2883 24.9886 41.3915 25.423 41.3915C30.5292 41.3915 35.0917 39.3426 38.3511 36.0649C32.375 35.7564 27.4865 33.0926 24.4448 28.3809Z" fill="white"></path>
    <path d="M35.7438 11.4777C35.6343 11.4777 35.6343 11.3745 35.526 11.3745C32.701 9.53085 29.225 8.40425 25.5301 8.40425C18.3604 8.40425 12.1677 12.5021 9.45209 18.2394C14.2323 18.8543 18.4698 21.3128 21.0771 24.8979C22.1636 17.6234 28.5729 13.2191 35.7438 11.4777Z" fill="white"></path>
    <path d="M68.5531 23.7702L64.2073 16.4968H59.9709L66.7062 26.7415V33.1947H70.2917V26.7415L76.9188 16.3947H72.7906L68.5531 23.7702Z" fill="white"></path>
    <path d="M86.2614 28.8926L81.8073 16.4968H77.8958L84.1968 33.1947H88.1083L94.5188 16.4968H90.6073L86.2614 28.8926Z" fill="white"></path>
    <path d="M25.5301 1.95C12.0594 1.95 1.08533 12.1936 1.08533 24.8968C1.08533 37.5989 12.0582 47.8447 25.5301 47.8447C39.002 47.8447 49.975 37.5989 49.975 24.8968C49.8667 12.1947 39.002 1.95 25.5301 1.95ZM25.5301 44.4649C14.0146 44.4649 4.77907 35.7564 4.77907 24.8979C4.77907 14.1415 14.1229 5.33085 25.5301 5.33085C37.0469 5.33085 46.2812 14.0383 46.2812 24.8979C46.2812 35.6543 36.9386 44.4649 25.5301 44.4649Z" fill="white"></path>
    <path d="M215.328 23.566H208.049V16.4968H204.464V33.1947H208.049V26.5362H215.328V33.1947H218.914V16.4968H215.328V23.566Z" fill="white"></path>
    <path d="M224.564 33.2979H237.492V30.3277H228.149V26.6394H234.775V23.7702H228.149V19.5702H237.492V16.6H224.564V33.2979Z" fill="white"></path>
    <path d="M253.679 26.3319C255.744 25.6149 257.156 23.7702 257.156 21.6192C257.156 18.8532 254.766 16.5989 251.832 16.5989H242.164V33.2979H245.749V26.6394H249.987L253.463 33.2979H257.591L253.679 26.3319ZM251.072 23.9755H245.641V19.4681H251.072C252.375 19.4681 253.461 20.4926 253.461 21.7223C253.461 22.9521 252.375 23.9755 251.072 23.9755Z" fill="white"></path>
    <path d="M200.77 27.6638H196.75C195.663 29.4053 193.817 30.5319 191.645 30.5319C188.385 30.5319 185.777 27.9713 185.777 24.8979C185.777 21.8245 188.387 19.2638 191.645 19.2638C193.708 19.2638 195.556 20.3904 196.75 22.1319H200.77L200.661 21.7223C199.357 18.4436 195.881 16.0883 191.753 16.0883C186.429 16.0883 182.301 19.9809 182.301 24.8989C182.301 29.816 186.429 33.6064 191.753 33.6064C195.881 33.6064 199.25 31.3532 200.661 27.9723L200.77 27.6638Z" fill="white"></path>
    <path d="M169.59 16.1904C164.266 16.1904 160.028 20.083 160.028 25C160.028 29.917 164.157 33.7085 169.59 33.7085C174.914 33.7085 179.042 29.9181 179.042 24.8979C179.042 19.9798 174.914 16.1904 169.59 16.1904ZM169.59 30.5319C166.33 30.5319 163.724 27.9713 163.724 24.8979C163.724 21.8245 166.331 19.2638 169.59 19.2638C172.848 19.2638 175.348 21.8245 175.348 24.8979C175.348 27.9713 172.741 30.5319 169.59 30.5319Z" fill="white"></path>
    <path d="M156.987 21.6192C156.987 18.8532 154.597 16.5989 151.663 16.5989H141.995V33.2979H145.58V26.6394H149.818L153.294 33.2979H157.422L153.62 26.3319C155.575 25.6149 156.987 23.7702 156.987 21.6192ZM151.012 23.9755H145.581V19.4681H151.012C152.317 19.4681 153.403 20.4926 153.403 21.7223C153.403 22.9521 152.317 23.9755 151.012 23.9755Z" fill="white"></path>
  </g>
  <defs>
    <clipPath id="clip0_9_12">
      <rect width="264" height="50" fill="white"></rect>
    </clipPath>
  </defs>
</svg>
